<svg xmlns="http://www.w3.org/2000/svg" viewBox="0 0 313.82 250"><path d="M176.94,79.43A17.16,17.16,0,0,1,193.12,90.9h52.17A125.06,125.06,0,0,0,125,0h0A125.06,125.06,0,0,0,4.71,90.9H160.77A17.14,17.14,0,0,1,176.94,79.43Z" fill="#fdba12"/><path d="M125,250a124.54,124.54,0,0,0,52.13-11.36H72.87A124.54,124.54,0,0,0,125,250Z" fill="#fdba12"/><path d="M193.13,102.26a17.14,17.14,0,0,1-32.37,0H2.07a126,126,0,0,0,0,45.44H247.94a126,126,0,0,0,0-45.44Z" fill="#fdba12"/><path d="M20.24,193.2H229.76a124.45,124.45,0,0,0,11.71-22.72H8.53A124.45,124.45,0,0,0,20.24,193.2Z" fill="#fdba12"/><path d="M296.65,79.43a17.16,17.16,0,1,0,17.17,17.16A17.16,17.16,0,0,0,296.65,79.43Z" fill="#fdba12"/></svg>